<svg xmlns="http://www.w3.org/2000/svg" width="980" height="472.32" viewBox="0 0 980 472.32"><path fill="#3C845A" d="M939.202 232.909v57.088h-65.036v-68.667h13.373v-10.38h-184.041v10.38h13.376v52.297h-72.66v-18.993c0-2.739-2.194-4.96-4.903-4.96h-7.633v-79.619c24.786 4.988 53.522 9.826 85.348 13.566 35.047 4.12 76.404 7.166 122.127 7.166 43.555 0 91.057-2.773 140.778-10.013v-4.857c-101.617 14.872-193.979 10.975-262.202 2.962-32.154-3.774-61.137-8.672-86.051-13.709v-19.203c25.883 5.34 56.332 10.581 90.299 14.574 35.046 4.12 76.402 7.166 122.126 7.166 42.104 0 87.906-2.598 135.828-9.31v-4.85c-99.666 14.033-190.14 10.135-257.253 2.253-34.309-4.03-65.004-9.336-91-14.726v-25.34h-15.646v15.928c-47.283 10.561-90.467 17.792-129.608 22.507v-9.293h11.378v-8.782h-189.23v8.782h11.378v15.445c-18.786-1.131-35.419-2.868-49.905-4.886-62.533-8.712-97.521-24.03-107.607-28.986v-19.097h-15.645v13.233c-50.085 15.903-99.583 26.401-147.039 32.978v4.849c47.449-6.539 96.947-16.997 147.037-32.798v16.424c-50.028 16.234-99.524 27.05-147.037 33.895v4.857c47.504-6.806 97-17.575 147.037-33.707v182.436h-21.56v-96.61h-125.231v240.448h125.231v-.119h74.11v.119h287.081v-.119h493.57800000000003v-240.329h-40.798zm-323.17-96.336v14.81c-45.513 13.375-89.04 21.944-129.608 27.078v-19.469c39.165-4.697 82.347-11.899 129.608-22.419zm-347.05 23.552c14.771 2.069 31.758 3.848 50.967 4.996v17.349c-10.237-.819-19.908-1.797-28.956-2.874-68.327-8.135-114.742-23.169-128.557-28.05v-19.744c12.545 5.96 46.832 19.963 106.546 28.323zm-106.545 169.394v-172.899c15.788 5.465 61.618 19.815 127.808 27.713 9.271 1.106 19.196 2.106 29.705 2.941v97.532h-131.244v10.379h10.636v34.333h-36.905zm323.987-2.558v-143.67c40.575-5.104 84.102-13.629 129.608-26.919v93.304h-64.322c-2.708 0-4.904 2.221-4.904 4.96v18.993h-19.406l-22.911 36.015h12.773v17.318h-30.838z"/><path fill="#8FCEA7" d="M340.078 196.368h12.585v22.373h-12.585zM361.166 196.368h12.588v22.373h-12.588zM383.191 196.368h12.584v22.373h-12.584zM340.078 226.602h12.585v22.373h-12.585zM361.166 226.602h12.588v22.373h-12.588zM383.191 226.602h12.584v22.373h-12.584zM739.628 238.139h12.585v22.373h-12.585zM760.388 237.438h12.585v22.374h-12.585zM781.944 237.438h12.586v22.374h-12.586zM560.494 320.736h29.355v12.45h-29.355zM541.883 339.626h47.967v8.021h-47.967zM541.883 320.736h11.718v12.45h-11.718zM221.043 309.549h12.584v22.375h-12.584zM241.101 309.549h12.583v22.375h-12.583zM14.761 273.62h12.584v22.373h-12.584zM34.817 273.62h12.585v22.373h-12.585zM54.17 274.327h12.585v22.374h-12.585zM74.226 274.327h12.585v22.374h-12.585z"/><path fill="#3C845A" d="M964.344 232.909h32.667v240.448h-32.667zM-17.906 232.909h32.667v240.448h-32.667z"/></svg>